<svg xmlns="http://www.w3.org/2000/svg" viewBox="0 0 296.36 86.63"><defs><style>.cls-1{fill:none;}.cls-2{fill:#fff;}.cls-3{fill:#25313d;}</style></defs><g id="Capa_2" data-name="Capa 2"><g id="Layer_1" data-name="Layer 1"><rect class="cls-1" x="101.13" y="10.38" width="195.23" height="76.25"/><path class="cls-2" d="M113.32,25.55a9.36,9.36,0,0,1-3.83.66c-4.71,0-7.57-2.94-7.57-7.45,0-4.89,3.39-7.84,7.92-7.84a8.6,8.6,0,0,1,3.61.66l-.59,2.16a7.2,7.2,0,0,0-2.91-.57c-3,0-5.19,1.89-5.19,5.45,0,3.26,1.92,5.35,5.17,5.35a7.57,7.57,0,0,0,2.95-.55Z"/><path class="cls-2" d="M117.08,21.4c.07,1.93,1.59,2.77,3.3,2.77a8,8,0,0,0,3-.49l.4,1.88a10.2,10.2,0,0,1-3.74.66c-3.48,0-5.52-2.14-5.52-5.42,0-3,1.8-5.76,5.23-5.76s4.62,2.86,4.62,5.21a7.44,7.44,0,0,1-.08,1.15Zm4.71-1.9a2.3,2.3,0,0,0-2.22-2.61,2.65,2.65,0,0,0-2.49,2.61Z"/><path class="cls-2" d="M126.52,18.47c0-1.23,0-2.27-.09-3.19h2.38l.13,1.61H129A3.84,3.84,0,0,1,132.42,15c1.87,0,3.8,1.21,3.8,4.6V26h-2.7V19.94c0-1.54-.57-2.7-2.05-2.7a2.27,2.27,0,0,0-2.11,1.58,2.69,2.69,0,0,0-.11.88V26h-2.73Z"/><path class="cls-2" d="M142.1,12.22v3.06h2.57v2H142.1V22c0,1.3.35,2,1.38,2a3.88,3.88,0,0,0,1.06-.13l0,2.07a6.05,6.05,0,0,1-2,.26,3.13,3.13,0,0,1-2.33-.88,4.26,4.26,0,0,1-.83-3v-5h-1.54v-2h1.54V12.86Z"/><path class="cls-2" d="M146.72,18.73c0-1.45,0-2.48-.09-3.45H149l.09,2h.09A3.2,3.2,0,0,1,152.09,15a3.06,3.06,0,0,1,.63.06v2.56a3.37,3.37,0,0,0-.79-.09,2.38,2.38,0,0,0-2.42,2,5.15,5.15,0,0,0-.09.84V26h-2.7Z"/><path class="cls-2" d="M164.54,20.54a5.31,5.31,0,0,1-5.5,5.7,5.18,5.18,0,0,1-5.37-5.53A5.28,5.28,0,0,1,159.21,15,5.14,5.14,0,0,1,164.54,20.54Zm-8.08.11c0,2.07,1,3.63,2.66,3.63s2.62-1.52,2.62-3.68c0-1.67-.74-3.58-2.59-3.58S156.46,18.87,156.46,20.65Z"/><path class="cls-2" d="M181.19,10.37V23c0,1.1.05,2.29.09,3h-2.42l-.11-1.69h0a3.86,3.86,0,0,1-3.5,1.94c-2.56,0-4.58-2.18-4.58-5.48,0-3.59,2.22-5.72,4.8-5.72a3.39,3.39,0,0,1,3,1.41h.05V10.37Zm-2.71,9.38a4.25,4.25,0,0,0-.06-.71,2.37,2.37,0,0,0-2.33-1.91c-1.74,0-2.71,1.54-2.71,3.54s1,3.39,2.69,3.39a2.39,2.39,0,0,0,2.33-1.92,3.24,3.24,0,0,0,.09-.79v-1.6Z"/><path class="cls-2" d="M186,21.4c.06,1.93,1.58,2.77,3.3,2.77a8,8,0,0,0,3-.49l.4,1.88a10.2,10.2,0,0,1-3.74.66c-3.48,0-5.53-2.14-5.53-5.42,0-3,1.81-5.76,5.24-5.76s4.62,2.86,4.62,5.21a6.16,6.16,0,0,1-.09,1.15Zm4.71-1.9a2.3,2.3,0,0,0-2.23-2.61A2.64,2.64,0,0,0,186,19.5Z"/><path class="cls-2" d="M105.66,48.19l-1.27,4.2h-2.8l4.76-14.83h3.45l4.82,14.83h-2.9l-1.35-4.2Zm4.25-2-1.17-3.66c-.28-.9-.52-1.91-.74-2.77h0c-.22.86-.44,1.9-.7,2.77l-1.15,3.66Z"/><path class="cls-2" d="M116.47,45.24c0-1.4,0-2.55-.09-3.56h2.37l.14,1.65h0a4.17,4.17,0,0,1,3.67-1.89c2.47,0,4.51,2.11,4.51,5.45,0,3.88-2.44,5.75-4.88,5.75a3.53,3.53,0,0,1-3-1.43h0v5.54h-2.71V45.24Zm2.7,2.67a2.59,2.59,0,0,0,.09.74,2.45,2.45,0,0,0,2.38,1.9c1.71,0,2.72-1.43,2.72-3.55,0-1.89-.92-3.43-2.66-3.43a2.54,2.54,0,0,0-2.42,2,2.76,2.76,0,0,0-.11.69Z"/><path class="cls-2" d="M129.33,45.13c0-1.45,0-2.48-.08-3.45h2.35l.09,2h.09a3.18,3.18,0,0,1,2.92-2.29,3.1,3.1,0,0,1,.64.06v2.56a3.37,3.37,0,0,0-.79-.09,2.38,2.38,0,0,0-2.42,2,4.24,4.24,0,0,0-.09.84V52.4h-2.71V45.13Z"/><path class="cls-2" d="M138.88,47.8c.07,1.93,1.59,2.77,3.3,2.77a8,8,0,0,0,3-.49l.4,1.87a10,10,0,0,1-3.74.66c-3.48,0-5.52-2.13-5.52-5.41,0-3,1.8-5.76,5.23-5.76s4.62,2.86,4.62,5.21a7.44,7.44,0,0,1-.08,1.15Zm4.71-1.9a2.3,2.3,0,0,0-2.22-2.61,2.65,2.65,0,0,0-2.49,2.61Z"/><path class="cls-2" d="M148.32,44.87c0-1.23,0-2.27-.09-3.19h2.38l.13,1.61h.07a3.84,3.84,0,0,1,3.41-1.85c1.87,0,3.8,1.21,3.8,4.6v6.35h-2.7v-6c0-1.54-.57-2.7-2-2.7a2.26,2.26,0,0,0-2.11,1.58,2.69,2.69,0,0,0-.11.88v6.29h-2.73V44.87Z"/><path class="cls-2" d="M170.78,36.77V49.38c0,1.1.05,2.29.09,3h-2.42l-.11-1.7h0a3.86,3.86,0,0,1-3.5,1.94c-2.55,0-4.58-2.18-4.58-5.48,0-3.59,2.23-5.72,4.8-5.72a3.39,3.39,0,0,1,3,1.41h.05V36.77Zm-2.7,9.38a3.42,3.42,0,0,0-.07-.71,2.37,2.37,0,0,0-2.33-1.91c-1.74,0-2.71,1.54-2.71,3.54s1,3.39,2.69,3.39A2.38,2.38,0,0,0,168,48.55a2.93,2.93,0,0,0,.09-.8v-1.6Z"/><path class="cls-2" d="M176.57,38.69a1.52,1.52,0,1,1-1.52-1.48A1.44,1.44,0,0,1,176.57,38.69ZM173.69,52.4V41.68h2.73V52.4Z"/><path class="cls-2" d="M178.31,50.83l4-5.15c.55-.66,1-1.18,1.59-1.8v0H178.7V41.68h8.52v1.65l-3.94,5c-.53.64-1,1.25-1.58,1.82v.05h5.65v2.15h-9Z"/><path class="cls-2" d="M195.25,52.4l-.18-1.19H195a4,4,0,0,1-3.17,1.43,3.18,3.18,0,0,1-3.37-3.19c0-2.71,2.4-4.07,6.36-4.05v-.18c0-.7-.29-1.87-2.18-1.87a5.69,5.69,0,0,0-2.88.79l-.53-1.76a7.76,7.76,0,0,1,3.87-.94c3.44,0,4.43,2.18,4.43,4.51v3.87a17.31,17.31,0,0,0,.15,2.58Zm-.35-5.24c-1.92,0-3.74.37-3.74,2a1.42,1.42,0,0,0,1.54,1.54,2.08,2.08,0,0,0,2.2-2.07V47.16Z"/><path class="cls-2" d="M198,54.88a3,3,0,0,0,2-.77c.51-.55.71-1.39.71-3.72V41.68h2.7v9.48c0,2.22-.41,3.61-1.38,4.58A5.72,5.72,0,0,1,198.28,57Zm5.59-16.19a1.51,1.51,0,1,1-1.5-1.48A1.42,1.42,0,0,1,203.61,38.69Z"/><path class="cls-2" d="M208.25,47.8c.06,1.93,1.58,2.77,3.3,2.77a8,8,0,0,0,3-.49l.4,1.87a10,10,0,0,1-3.74.66c-3.48,0-5.53-2.13-5.53-5.41,0-3,1.81-5.76,5.24-5.76s4.62,2.86,4.62,5.21a6.16,6.16,0,0,1-.09,1.15ZM213,45.9a2.3,2.3,0,0,0-2.23-2.61,2.64,2.64,0,0,0-2.48,2.61Z"/><path class="cls-2" d="M224.15,47.8c.07,1.93,1.59,2.77,3.3,2.77a8.06,8.06,0,0,0,3-.49l.39,1.87a10,10,0,0,1-3.74.66c-3.48,0-5.52-2.13-5.52-5.41,0-3,1.8-5.76,5.24-5.76s4.62,2.86,4.62,5.21a7.18,7.18,0,0,1-.09,1.15Zm4.71-1.9a2.3,2.3,0,0,0-2.22-2.61,2.65,2.65,0,0,0-2.49,2.61Z"/><path class="cls-2" d="M233.59,44.87c0-1.23,0-2.27-.09-3.19h2.38l.13,1.61h.07a3.86,3.86,0,0,1,3.41-1.85c1.87,0,3.8,1.21,3.8,4.6v6.35h-2.7v-6c0-1.54-.57-2.7-2.05-2.7a2.27,2.27,0,0,0-2.11,1.58,2.69,2.69,0,0,0-.11.88v6.29h-2.73V44.87Z"/><path class="cls-2" d="M250.73,36.77h2.73V52.4h-2.73Z"/><path class="cls-2" d="M256.38,52.4V41.68h2.73V52.4ZM261.05,37l-2.71,3.25h-1.87L258.38,37Z"/><path class="cls-2" d="M262,44.87c0-1.23,0-2.27-.08-3.19h2.37l.14,1.61h.06a3.86,3.86,0,0,1,3.41-1.85c1.87,0,3.81,1.21,3.81,4.6v6.35H269v-6c0-1.54-.57-2.7-2-2.7a2.28,2.28,0,0,0-2.12,1.58,2.69,2.69,0,0,0-.11.88v6.29H262V44.87Z"/><path class="cls-2" d="M276.51,47.8c.07,1.93,1.59,2.77,3.3,2.77a8,8,0,0,0,3-.49l.4,1.87a10,10,0,0,1-3.74.66c-3.48,0-5.52-2.13-5.52-5.41,0-3,1.8-5.76,5.23-5.76s4.63,2.86,4.63,5.21a7.18,7.18,0,0,1-.09,1.15Zm4.71-1.9A2.3,2.3,0,0,0,279,43.29a2.65,2.65,0,0,0-2.49,2.61Z"/><path class="cls-2" d="M292,52.4l-.18-1.19h-.06a4,4,0,0,1-3.17,1.43,3.18,3.18,0,0,1-3.37-3.19c0-2.71,2.4-4.07,6.36-4.05v-.18c0-.7-.28-1.87-2.18-1.87a5.71,5.71,0,0,0-2.88.79L286,42.38a7.76,7.76,0,0,1,3.87-.94c3.44,0,4.43,2.18,4.43,4.51v3.87a17.31,17.31,0,0,0,.15,2.58Zm-.35-5.24c-1.92,0-3.74.37-3.74,2a1.42,1.42,0,0,0,1.54,1.54,2.08,2.08,0,0,0,2.2-2.07V47.16Z"/></g><g id="Capa_2-2" data-name="Capa 2"><path class="cls-2" d="M15.69,30.18H84.12c8.66,0,15.68,9.12,15.68,20.38h0c0,11.26-7,20.38-15.68,20.38H15.69C7,70.94,0,61.82,0,50.56H0C0,39.3,7,30.18,15.69,30.18Z"/><ellipse class="cls-2" cx="65.64" cy="28.23" rx="23.11" ry="28.23"/><ellipse class="cls-2" cx="40.6" cy="38.74" rx="20.41" ry="24.92"/><path class="cls-3" d="M30.19,47.6H42.84a.1.1,0,0,1,.08.1v15a.09.09,0,0,1-.08.1H30.19a.09.09,0,0,1-.08-.1v-15A.1.1,0,0,1,30.19,47.6Z"/><path class="cls-3" d="M41.94,42.23l5.56,6.63-11,0-11,0,5.54-6.63,5.43-6.69Z"/><path class="cls-3" d="M25.72,48.79h21.6a.27.27,0,0,1,.24.3v.67a.27.27,0,0,1-.24.3H25.72a.27.27,0,0,1-.24-.3v-.67A.27.27,0,0,1,25.72,48.79Z"/><path class="cls-3" d="M59.64,50.79H72.29s.08,0,.08-.11v-15c0-.06,0-.11-.08-.11H59.64s-.08.05-.08.11v15C59.56,50.74,59.6,50.79,59.64,50.79Z"/><path class="cls-3" d="M71.39,56.16l5.55-6.63-11,0-11,0,5.55,6.64L66,62.84Z"/><path class="cls-3" d="M55.17,49.6h21.6a.28.28,0,0,0,.24-.31v-.66a.28.28,0,0,0-.24-.31H55.17a.28.28,0,0,0-.24.31v.66A.28.28,0,0,0,55.17,49.6Z"/></g></g></svg>