<?xml version="1.0" encoding="utf-8"?>
<!-- Generator: Adobe Illustrator 21.0.0, SVG Export Plug-In . SVG Version: 6.00 Build 0)  -->
<svg version="1.1" id="Layer_1" xmlns="http://www.w3.org/2000/svg" xmlns:xlink="http://www.w3.org/1999/xlink" x="0px" y="0px"
	 viewBox="0 0 900 800" enable-background="new 0 0 900 800" xml:space="preserve">
<g>
	<linearGradient id="SVGID_1_" gradientUnits="userSpaceOnUse" x1="151.492" y1="658.2868" x2="394.5432" y2="397.2318">
		<stop  offset="0" style="stop-color:#2EBBE9"/>
		<stop  offset="0.0494" style="stop-color:#35BDEA"/>
		<stop  offset="0.1212" style="stop-color:#48C2EB"/>
		<stop  offset="0.2067" style="stop-color:#68CAEE"/>
		<stop  offset="0.298" style="stop-color:#92D4F1"/>
		<stop  offset="0.3384" style="stop-color:#91D4F1"/>
		<stop  offset="0.3687" style="stop-color:#90D3F1"/>
		<stop  offset="0.404" style="stop-color:#8FD3F1"/>
		<stop  offset="0.4444" style="stop-color:#8ED2F0"/>
		<stop  offset="0.4848" style="stop-color:#8CD2F0"/>
		<stop  offset="0.5101" style="stop-color:#8BD1F0"/>
		<stop  offset="0.5455" style="stop-color:#8AD1F0"/>
		<stop  offset="0.601" style="stop-color:#86D0F0"/>
		<stop  offset="0.6465" style="stop-color:#82CFEF"/>
		<stop  offset="0.6869" style="stop-color:#80CEEF"/>
		<stop  offset="0.7273" style="stop-color:#7ECDEF"/>
		<stop  offset="0.798" style="stop-color:#78CBEE"/>
		<stop  offset="1" style="stop-color:#4FC1EB"/>
	</linearGradient>
	<path fill="url(#SVGID_1_)" d="M16.758,440.058c0,0,0,0,0,170.285c0,170.287,170.285,170.287,170.285,170.287s0,0,169.536,0
		c169.534,0,169.534-169.539,169.534-169.539v-77.166c-55.828-21.869-113.589-49.138-169.534-83.073c0,74.96,0,131.246,0,137.736
		c0,21.19-16.504,22.503-16.504,22.503s-121.712,0-136.528,0c-14.817,0-16.505-13.5-16.505-13.5s0-105.21,0-130.528
		c0-25.317,18.004-25.506,18.004-25.506h136.523c-69.918-44.199-136.412-99.133-192.017-167.333
		C29.893,298.958,16.758,440.058,16.758,440.058z"/>
	<linearGradient id="SVGID_2_" gradientUnits="userSpaceOnUse" x1="482.1228" y1="966.1213" x2="725.1769" y2="705.0632">
		<stop  offset="0" style="stop-color:#2EBBE9"/>
		<stop  offset="0.0494" style="stop-color:#35BDEA"/>
		<stop  offset="0.1212" style="stop-color:#48C2EB"/>
		<stop  offset="0.2067" style="stop-color:#68CAEE"/>
		<stop  offset="0.298" style="stop-color:#92D4F1"/>
		<stop  offset="0.3384" style="stop-color:#91D4F1"/>
		<stop  offset="0.3687" style="stop-color:#90D3F1"/>
		<stop  offset="0.404" style="stop-color:#8FD3F1"/>
		<stop  offset="0.4444" style="stop-color:#8ED2F0"/>
		<stop  offset="0.4848" style="stop-color:#8CD2F0"/>
		<stop  offset="0.5101" style="stop-color:#8BD1F0"/>
		<stop  offset="0.5455" style="stop-color:#8AD1F0"/>
		<stop  offset="0.601" style="stop-color:#86D0F0"/>
		<stop  offset="0.6465" style="stop-color:#82CFEF"/>
		<stop  offset="0.6869" style="stop-color:#80CEEF"/>
		<stop  offset="0.7273" style="stop-color:#7ECDEF"/>
		<stop  offset="0.798" style="stop-color:#78CBEE"/>
		<stop  offset="1" style="stop-color:#4FC1EB"/>
	</linearGradient>
	<path fill="url(#SVGID_2_)" d="M879.915,620.043c-7.249-0.589-74.851-6.5-169.721-28.958c0.209,88.925,0.46,189.546,0.46,189.546
		S872.692,749.056,879.915,620.043z"/>
</g>
<g>
	<linearGradient id="SVGID_3_" gradientUnits="userSpaceOnUse" x1="344.3586" y1="509.8629" x2="461.3768" y2="226.3179">
		<stop  offset="0" style="stop-color:#23A5D9"/>
		<stop  offset="0.1834" style="stop-color:#20A0D2"/>
		<stop  offset="0.4501" style="stop-color:#1894BF"/>
		<stop  offset="0.7662" style="stop-color:#0B7F9F"/>
		<stop  offset="1" style="stop-color:#006C83"/>
	</linearGradient>
	<path fill="url(#SVGID_3_)" d="M526.119,15.616H356.58c0,0,0,265.605,0,435.385c55.945,33.934,113.706,61.204,169.539,83.074
		V15.616z"/>
	<linearGradient id="SVGID_4_" gradientUnits="userSpaceOnUse" x1="206.4046" y1="452.9299" x2="323.4227" y2="169.3852">
		<stop  offset="0" style="stop-color:#23A5D9"/>
		<stop  offset="0.1834" style="stop-color:#20A0D2"/>
		<stop  offset="0.4501" style="stop-color:#1894BF"/>
		<stop  offset="0.7662" style="stop-color:#0B7F9F"/>
		<stop  offset="1" style="stop-color:#006C83"/>
	</linearGradient>
	<path fill="url(#SVGID_4_)" d="M341.572,441.706h0.006V270.67c0,0,0,0-154.532,0c-13.543,0-25.998,1.328-37.492,3.703
		C205.161,342.574,271.654,397.508,341.572,441.706z"/>
	<linearGradient id="SVGID_5_" gradientUnits="userSpaceOnUse" x1="634.5086" y1="629.6066" x2="751.5264" y2="346.0625">
		<stop  offset="0" style="stop-color:#23A5D9"/>
		<stop  offset="0.1834" style="stop-color:#20A0D2"/>
		<stop  offset="0.4501" style="stop-color:#1894BF"/>
		<stop  offset="0.7662" style="stop-color:#0B7F9F"/>
		<stop  offset="1" style="stop-color:#006C83"/>
	</linearGradient>
	<path fill="url(#SVGID_5_)" d="M880.19,611.242c0-136.528,0-171.036,0-171.036S896.88,270.67,710.653,270.67
		c-143.86,0-166.623,0-169.534,0v169.536h150.03c0,0,18.756-2.811,18.756,18.755c0,9.08,0.134,67.585,0.289,132.273
		c94.871,22.458,162.474,28.369,169.723,28.957C880.079,617.251,880.19,614.281,880.19,611.242z"/>
</g>
<g>
</g>
<g>
</g>
<g>
</g>
<g>
</g>
<g>
</g>
</svg>
