<?xml version="1.0" encoding="utf-8"?>
<!-- Generator: Adobe Illustrator 21.0.0, SVG Export Plug-In . SVG Version: 6.00 Build 0)  -->
<svg version="1.1" id="Layer_1" xmlns="http://www.w3.org/2000/svg" xmlns:xlink="http://www.w3.org/1999/xlink" x="0px" y="0px"
	 viewBox="0 0 1000 511" enable-background="new 0 0 1000 511" xml:space="preserve">
<g>
	<path fill="#FFFFFF" d="M249.776,280.769c0,0,0,0,0,100.207c0,100.208,100.207,100.208,100.207,100.208s0,0,99.766,0
		c99.765,0,99.765-99.768,99.765-99.768v-45.409c-32.853-12.869-66.843-28.916-99.765-48.886c0,44.111,0,77.233,0,81.053
		c0,12.47-9.712,13.242-9.712,13.242s-71.623,0-80.342,0c-8.719,0-9.712-7.944-9.712-7.944s0-61.913,0-76.811
		c0-14.898,10.595-15.009,10.595-15.009h80.339c-41.144-26.009-80.273-58.336-112.995-98.469
		C257.505,197.737,249.776,280.769,249.776,280.769z"/>
	<path fill="#FFFFFF" d="M757.713,386.684c-4.266-0.347-44.047-3.825-99.875-17.041c0.123,52.329,0.271,111.541,0.271,111.541
		S753.463,462.604,757.713,386.684z"/>
</g>
<g>
	<path fill="#FFFFFF" d="M549.517,31h-99.768c0,0,0,156.299,0,256.208c32.922,19.969,66.912,36.017,99.768,48.886V31z"/>
	<path fill="#FFFFFF" d="M440.917,281.739h0.003V181.09c0,0,0,0-90.936,0c-7.97,0-15.299,0.781-22.063,2.179
		C360.644,223.403,399.773,255.73,440.917,281.739z"/>
	<path fill="#FFFFFF" d="M757.875,381.505c0-80.342,0-100.649,0-100.649s9.821-99.766-99.767-99.766c-84.656,0-98.052,0-99.765,0
		v99.766h88.287c0,0,11.037-1.654,11.037,11.037c0,5.343,0.079,39.771,0.17,77.838c55.828,13.216,95.61,16.694,99.876,17.04
		C757.81,385.041,757.875,383.293,757.875,381.505z"/>
</g>
<g>
</g>
<g>
</g>
<g>
</g>
<g>
</g>
<g>
</g>
</svg>
