<svg xmlns="http://www.w3.org/2000/svg" viewBox="0 0 878.67 624.58"><defs><style>.cls-1{fill:#fff;}.cls-2{fill:#25313d;}</style></defs><g id="Capa_2" data-name="Capa 2"><g id="Capa_2-2" data-name="Capa 2"><path class="cls-1" d="M138.14,265.72H740.62c76.25,0,138,80.29,138,179.43h0c0,99.13-61.63,179.43-138,179.43H138.14C61.63,624.58,0,544.28,0,445.15H0C0,346,61.63,265.72,138.14,265.72Z"/><ellipse class="cls-1" cx="577.92" cy="248.55" rx="203.47" ry="248.55"/><ellipse class="cls-1" cx="357.46" cy="341.08" rx="179.7" ry="219.4"/><path class="cls-2" d="M265.8,419.09H377.18a.87.87,0,0,1,.7.88V552a.79.79,0,0,1-.69.88H265.8a.78.78,0,0,1-.7-.87h0V420A.87.87,0,0,1,265.8,419.09Z"/><path class="cls-2" d="M369.25,371.81l49,58.37H224.51l48.78-58.37,47.8-58.9Z"/><path class="cls-2" d="M525.09,447.17H636.47s.7,0,.7-1V314.14c0-.53,0-1-.7-1H525.09s-.7.44-.7,1V446.2C524.39,446.73,524.74,447.17,525.09,447.17Z"/><path class="cls-2" d="M628.54,494.45l48.87-58.37H483.71l48.87,58.46,48.51,58.73Z"/></g></g></svg>