<?xml version="1.0" encoding="utf-8"?>
<!-- Generator: Adobe Illustrator 21.0.0, SVG Export Plug-In . SVG Version: 6.00 Build 0)  -->
<svg version="1.1" id="Layer_1" xmlns="http://www.w3.org/2000/svg" xmlns:xlink="http://www.w3.org/1999/xlink" x="0px" y="0px"
	 viewBox="0 0 300 91" enable-background="new 0 0 300 91" xml:space="preserve">
<g>
	<g>
		<path fill="#FFFFFF" d="M5.731,48.217c0,0,0,0,0,17.339c0,17.339,17.339,17.339,17.339,17.339s0,0,17.262,0
			c17.262,0,17.262-17.263,17.262-17.263v-7.857c-5.684-2.227-11.566-5.003-17.262-8.459c0,7.633,0,13.364,0,14.024
			c0,2.158-1.68,2.291-1.68,2.291s-12.393,0-13.901,0c-1.509,0-1.681-1.375-1.681-1.375s0-10.713,0-13.291
			c0-2.578,1.833-2.597,1.833-2.597h13.901c-7.119-4.5-13.89-10.094-19.551-17.038C7.069,33.85,5.731,48.217,5.731,48.217z"/>
		<path fill="#FFFFFF" d="M93.619,66.544c-0.738-0.06-7.621-0.662-17.281-2.949c0.021,9.054,0.047,19.3,0.047,19.3
			S92.884,79.68,93.619,66.544z"/>
	</g>
	<g>
		<path fill="#FFFFFF" d="M57.595,5H40.332c0,0,0,27.044,0,44.331c5.696,3.455,11.578,6.232,17.263,8.459V5z"/>
		<path fill="#FFFFFF" d="M38.804,48.385L38.804,48.385l0.001-17.415c0,0,0,0-15.735,0c-1.379,0-2.647,0.135-3.817,0.377
			C24.915,38.291,31.685,43.885,38.804,48.385z"/>
		<path fill="#FFFFFF" d="M93.647,65.647c0-13.901,0-17.415,0-17.415S95.346,30.97,76.385,30.97c-14.648,0-16.966,0-17.262,0v17.262
			h15.276c0,0,1.91-0.286,1.91,1.91c0,0.925,0.014,6.882,0.029,13.468c9.66,2.287,16.543,2.889,17.281,2.948
			C93.636,66.259,93.647,65.957,93.647,65.647z"/>
	</g>
</g>
<g>
	<rect x="102.755" y="19.663" fill="none" width="195.227" height="76.255"/>
	<path fill="#FFFFFF" d="M114.945,34.842c-0.638,0.33-2.046,0.66-3.829,0.66c-4.709,0-7.569-2.949-7.569-7.459
		c0-4.884,3.389-7.833,7.921-7.833c1.782,0,3.058,0.374,3.608,0.66l-0.594,2.156c-0.704-0.308-1.672-0.572-2.904-0.572
		c-3.015,0-5.193,1.892-5.193,5.457c0,3.256,1.915,5.347,5.171,5.347c1.1,0,2.244-0.22,2.948-0.55L114.945,34.842z"/>
	<path fill="#FFFFFF" d="M118.706,30.684c0.066,1.936,1.584,2.772,3.3,2.772c1.254,0,2.156-0.176,2.97-0.484l0.396,1.871
		c-0.924,0.374-2.2,0.66-3.74,0.66c-3.477,0-5.523-2.134-5.523-5.413c0-2.97,1.804-5.765,5.237-5.765
		c3.477,0,4.621,2.86,4.621,5.215c0,0.506-0.044,0.902-0.088,1.144H118.706z M123.414,28.792c0.022-0.99-0.418-2.619-2.222-2.619
		c-1.672,0-2.376,1.518-2.486,2.619H123.414z"/>
	<path fill="#FFFFFF" d="M128.144,27.757c0-1.232-0.022-2.267-0.088-3.19h2.376l0.132,1.606h0.066
		c0.462-0.836,1.628-1.848,3.411-1.848c1.87,0,3.807,1.21,3.807,4.599v6.359h-2.707v-6.051c0-1.541-0.572-2.707-2.046-2.707
		c-1.078,0-1.826,0.77-2.112,1.584c-0.088,0.242-0.11,0.572-0.11,0.88v6.293h-2.729V27.757z"/>
	<path fill="#FFFFFF" d="M143.72,21.508v3.059h2.574v2.024h-2.574v4.731c0,1.298,0.352,1.98,1.386,1.98
		c0.462,0,0.814-0.066,1.056-0.132l0.044,2.068c-0.396,0.154-1.1,0.264-1.958,0.264c-0.99,0-1.826-0.33-2.332-0.88
		c-0.572-0.616-0.836-1.584-0.836-2.992v-5.039h-1.54v-2.024h1.54v-2.42L143.72,21.508z"/>
	<path fill="#FFFFFF" d="M148.34,28.021c0-1.452-0.022-2.486-0.088-3.454h2.354l0.088,2.046h0.088
		c0.528-1.518,1.782-2.288,2.927-2.288c0.264,0,0.418,0.022,0.638,0.066v2.552c-0.22-0.044-0.462-0.088-0.792-0.088
		c-1.298,0-2.179,0.836-2.42,2.046c-0.045,0.242-0.089,0.528-0.089,0.836v5.545h-2.706V28.021z"/>
	<path fill="#FFFFFF" d="M166.161,29.825c0,3.939-2.772,5.699-5.501,5.699c-3.036,0-5.368-2.09-5.368-5.523
		c0-3.521,2.31-5.677,5.544-5.677C164.027,24.325,166.161,26.569,166.161,29.825z M158.086,29.936c0,2.068,1.012,3.63,2.662,3.63
		c1.541,0,2.619-1.518,2.619-3.674c0-1.672-0.748-3.587-2.597-3.587C158.856,26.305,158.086,28.153,158.086,29.936z"/>
	<path fill="#FFFFFF" d="M182.815,19.66v12.607c0,1.101,0.044,2.289,0.088,3.015h-2.421l-0.109-1.694h-0.044
		c-0.639,1.188-1.937,1.937-3.499,1.937c-2.553,0-4.576-2.179-4.576-5.479c-0.022-3.586,2.222-5.721,4.796-5.721
		c1.475,0,2.53,0.616,3.015,1.408h0.044V19.66H182.815z M180.108,29.033c0-0.22-0.021-0.484-0.065-0.704
		c-0.242-1.056-1.101-1.914-2.333-1.914c-1.738,0-2.706,1.54-2.706,3.542c0,1.958,0.968,3.388,2.685,3.388
		c1.1,0,2.068-0.748,2.332-1.914c0.066-0.242,0.088-0.506,0.088-0.792V29.033z"/>
	<path fill="#FFFFFF" d="M187.632,30.684c0.066,1.936,1.585,2.772,3.301,2.772c1.254,0,2.156-0.176,2.971-0.484l0.396,1.871
		c-0.924,0.374-2.2,0.66-3.74,0.66c-3.477,0-5.522-2.134-5.522-5.413c0-2.97,1.804-5.765,5.236-5.765
		c3.477,0,4.621,2.86,4.621,5.215c0,0.506-0.044,0.902-0.089,1.144H187.632z M192.341,28.792c0.022-0.99-0.418-2.619-2.223-2.619
		c-1.672,0-2.376,1.518-2.486,2.619H192.341z"/>
	<path fill="#FFFFFF" d="M107.288,57.48l-1.276,4.202h-2.794l4.753-14.83h3.455l4.818,14.83h-2.904l-1.342-4.202H107.288z
		 M111.534,55.434l-1.166-3.652c-0.286-0.902-0.528-1.914-0.748-2.772h-0.044c-0.22,0.858-0.44,1.893-0.704,2.772l-1.144,3.652
		H111.534z"/>
	<path fill="#FFFFFF" d="M118.089,54.532c0-1.408-0.044-2.553-0.088-3.564h2.376l0.132,1.649h0.044
		c0.792-1.21,2.046-1.892,3.675-1.892c2.464,0,4.51,2.112,4.51,5.456c0,3.873-2.442,5.743-4.885,5.743
		c-1.342,0-2.464-0.572-3.014-1.431h-0.044v5.545h-2.707V54.532z M120.795,57.194c0,0.264,0.022,0.506,0.088,0.748
		c0.264,1.1,1.232,1.892,2.376,1.892c1.716,0,2.729-1.43,2.729-3.542c0-1.893-0.924-3.433-2.663-3.433
		c-1.122,0-2.156,0.814-2.42,2.003c-0.066,0.22-0.11,0.462-0.11,0.682V57.194z"/>
	<path fill="#FFFFFF" d="M130.958,54.422c0-1.452-0.022-2.486-0.088-3.454h2.354l0.088,2.046h0.088
		c0.528-1.519,1.782-2.288,2.926-2.288c0.264,0,0.418,0.021,0.638,0.065v2.553c-0.22-0.044-0.462-0.088-0.792-0.088
		c-1.298,0-2.178,0.836-2.42,2.046c-0.044,0.242-0.088,0.528-0.088,0.836v5.545h-2.707V54.422z"/>
	<path fill="#FFFFFF" d="M140.507,57.084c0.066,1.937,1.584,2.772,3.3,2.772c1.254,0,2.156-0.176,2.97-0.484l0.396,1.87
		c-0.924,0.374-2.201,0.66-3.741,0.66c-3.477,0-5.523-2.134-5.523-5.412c0-2.971,1.804-5.765,5.237-5.765
		c3.477,0,4.621,2.86,4.621,5.215c0,0.506-0.044,0.901-0.088,1.144H140.507z M145.215,55.192c0.022-0.99-0.418-2.619-2.222-2.619
		c-1.672,0-2.376,1.519-2.486,2.619H145.215z"/>
	<path fill="#FFFFFF" d="M149.944,54.158c0-1.232-0.022-2.267-0.088-3.19h2.376l0.133,1.605h0.065
		c0.462-0.836,1.628-1.848,3.41-1.848c1.871,0,3.807,1.21,3.807,4.599v6.358h-2.706v-6.051c0-1.54-0.572-2.706-2.046-2.706
		c-1.078,0-1.827,0.77-2.112,1.584c-0.089,0.242-0.11,0.572-0.11,0.88v6.293h-2.729V54.158z"/>
	<path fill="#FFFFFF" d="M172.408,46.061v12.607c0,1.101,0.044,2.288,0.088,3.015h-2.421l-0.109-1.694h-0.044
		c-0.639,1.188-1.937,1.937-3.499,1.937c-2.553,0-4.576-2.179-4.576-5.479c-0.022-3.587,2.222-5.721,4.796-5.721
		c1.475,0,2.531,0.616,3.015,1.408h0.044v-6.073H172.408z M169.701,55.434c0-0.22-0.021-0.483-0.065-0.704
		c-0.242-1.056-1.101-1.914-2.333-1.914c-1.738,0-2.706,1.54-2.706,3.543c0,1.958,0.968,3.388,2.685,3.388
		c1.1,0,2.068-0.748,2.332-1.914c0.066-0.242,0.088-0.506,0.088-0.792V55.434z"/>
	<path fill="#FFFFFF" d="M178.193,47.975c0,0.814-0.595,1.452-1.541,1.452c-0.901,0-1.496-0.638-1.496-1.452
		c0-0.836,0.616-1.474,1.519-1.474C177.599,46.501,178.171,47.139,178.193,47.975z M175.311,61.683V50.968h2.729v10.715H175.311z"/>
	<path fill="#FFFFFF" d="M179.931,60.12l4.026-5.148c0.55-0.66,1.012-1.188,1.584-1.804v-0.044h-5.215v-2.156h8.516v1.649
		l-3.938,5.039c-0.528,0.638-1.034,1.254-1.585,1.826v0.044h5.655v2.156h-9.043V60.12z"/>
	<path fill="#FFFFFF" d="M196.872,61.683l-0.177-1.188h-0.065c-0.66,0.837-1.782,1.431-3.169,1.431c-2.156,0-3.366-1.563-3.366-3.19
		c0-2.706,2.398-4.07,6.359-4.049V54.51c0-0.704-0.286-1.87-2.179-1.87c-1.057,0-2.156,0.33-2.883,0.792l-0.527-1.76
		c0.792-0.484,2.178-0.946,3.872-0.946c3.433,0,4.423,2.178,4.423,4.511v3.872c0,0.968,0.044,1.914,0.154,2.574H196.872z
		 M196.52,56.446c-1.914-0.044-3.74,0.374-3.74,2.002c0,1.057,0.682,1.54,1.54,1.54c1.078,0,1.87-0.704,2.112-1.474
		c0.066-0.198,0.088-0.418,0.088-0.595V56.446z"/>
	<path fill="#FFFFFF" d="M199.643,64.169c0.88-0.066,1.584-0.308,2.024-0.771c0.506-0.55,0.704-1.386,0.704-3.718v-8.713h2.706
		v9.482c0,2.223-0.418,3.608-1.387,4.577c-0.945,0.88-2.442,1.254-3.784,1.254L199.643,64.169z M205.231,47.975
		c0,0.792-0.572,1.452-1.541,1.452c-0.901,0-1.474-0.66-1.474-1.452c0-0.836,0.594-1.474,1.518-1.474
		C204.659,46.501,205.231,47.139,205.231,47.975z"/>
	<path fill="#FFFFFF" d="M209.872,57.084c0.066,1.937,1.585,2.772,3.301,2.772c1.254,0,2.156-0.176,2.971-0.484l0.396,1.87
		c-0.924,0.374-2.2,0.66-3.74,0.66c-3.477,0-5.522-2.134-5.522-5.412c0-2.971,1.804-5.765,5.236-5.765
		c3.477,0,4.621,2.86,4.621,5.215c0,0.506-0.044,0.901-0.089,1.144H209.872z M214.581,55.192c0.022-0.99-0.418-2.619-2.223-2.619
		c-1.672,0-2.376,1.519-2.486,2.619H214.581z"/>
	<path fill="#FFFFFF" d="M225.777,57.084c0.066,1.937,1.585,2.772,3.301,2.772c1.254,0,2.156-0.176,2.971-0.484l0.396,1.87
		c-0.924,0.374-2.2,0.66-3.74,0.66c-3.477,0-5.522-2.134-5.522-5.412c0-2.971,1.804-5.765,5.236-5.765
		c3.477,0,4.621,2.86,4.621,5.215c0,0.506-0.044,0.901-0.089,1.144H225.777z M230.486,55.192c0.021-0.99-0.418-2.619-2.223-2.619
		c-1.672,0-2.376,1.519-2.486,2.619H230.486z"/>
	<path fill="#FFFFFF" d="M235.215,54.158c0-1.232-0.021-2.267-0.088-3.19h2.376l0.132,1.605h0.066
		c0.462-0.836,1.628-1.848,3.41-1.848c1.871,0,3.807,1.21,3.807,4.599v6.358h-2.706v-6.051c0-1.54-0.572-2.706-2.046-2.706
		c-1.078,0-1.826,0.77-2.112,1.584c-0.089,0.242-0.11,0.572-0.11,0.88v6.293h-2.729V54.158z"/>
	<path fill="#FFFFFF" d="M252.353,46.061h2.729v15.622h-2.729V46.061z"/>
	<path fill="#FFFFFF" d="M258.006,61.683V50.968h2.729v10.715H258.006z M262.671,46.324l-2.707,3.257h-1.87l1.914-3.257H262.671z"/>
	<path fill="#FFFFFF" d="M263.638,54.158c0-1.232-0.021-2.267-0.088-3.19h2.376l0.133,1.605h0.065
		c0.462-0.836,1.628-1.848,3.41-1.848c1.871,0,3.807,1.21,3.807,4.599v6.358h-2.706v-6.051c0-1.54-0.572-2.706-2.046-2.706
		c-1.078,0-1.827,0.77-2.112,1.584c-0.089,0.242-0.11,0.572-0.11,0.88v6.293h-2.729V54.158z"/>
	<path fill="#FFFFFF" d="M278.136,57.084c0.066,1.937,1.585,2.772,3.301,2.772c1.254,0,2.156-0.176,2.971-0.484l0.396,1.87
		c-0.924,0.374-2.2,0.66-3.74,0.66c-3.477,0-5.522-2.134-5.522-5.412c0-2.971,1.804-5.765,5.236-5.765
		c3.477,0,4.621,2.86,4.621,5.215c0,0.506-0.044,0.901-0.089,1.144H278.136z M282.845,55.192c0.022-0.99-0.418-2.619-2.223-2.619
		c-1.672,0-2.376,1.519-2.486,2.619H282.845z"/>
	<path fill="#FFFFFF" d="M293.603,61.683l-0.177-1.188h-0.065c-0.66,0.837-1.782,1.431-3.169,1.431c-2.156,0-3.366-1.563-3.366-3.19
		c0-2.706,2.398-4.07,6.359-4.049V54.51c0-0.704-0.286-1.87-2.179-1.87c-1.057,0-2.156,0.33-2.883,0.792l-0.527-1.76
		c0.792-0.484,2.178-0.946,3.872-0.946c3.433,0,4.423,2.178,4.423,4.511v3.872c0,0.968,0.044,1.914,0.154,2.574H293.603z
		 M293.25,56.446c-1.914-0.044-3.74,0.374-3.74,2.002c0,1.057,0.682,1.54,1.54,1.54c1.078,0,1.87-0.704,2.112-1.474
		c0.066-0.198,0.088-0.418,0.088-0.595V56.446z"/>
</g>
<g>
</g>
<g>
</g>
<g>
</g>
<g>
</g>
<g>
</g>
</svg>
