<?xml version="1.0" encoding="utf-8"?>
<!-- Generator: Adobe Illustrator 21.0.0, SVG Export Plug-In . SVG Version: 6.00 Build 0)  -->
<svg version="1.1" id="Layer_1" xmlns="http://www.w3.org/2000/svg" xmlns:xlink="http://www.w3.org/1999/xlink" x="0px" y="0px"
	 viewBox="0 0 900 800" enable-background="new 0 0 900 800" xml:space="preserve">
<g>
	<path fill="#FFFFFF" d="M2,436.391c0,0,0,0,0,172.271c0,172.273,172.271,172.273,172.271,172.273s0,0,171.513,0
		c171.511,0,171.511-171.516,171.511-171.516v-78.065c-56.479-22.124-114.914-49.711-171.511-84.042c0,75.834,0,132.776,0,139.342
		c0,21.438-16.696,22.765-16.696,22.765s-123.132,0-138.12,0c-14.99,0-16.697-13.657-16.697-13.657s0-106.437,0-132.05
		c0-25.613,18.214-25.803,18.214-25.803H330.6c-70.733-44.714-138.002-100.289-194.256-169.284C15.288,293.646,2,436.391,2,436.391z
		"/>
	<path fill="#FFFFFF" d="M875.222,618.475c-7.333-0.596-75.723-6.576-171.7-29.296c0.211,89.962,0.465,191.756,0.465,191.756
		S867.915,748.993,875.222,618.475z"/>
</g>
<g>
	<path fill="#FFFFFF" d="M517.3,7H345.784c0,0,0,268.703,0,440.462c56.598,34.33,115.032,61.918,171.516,84.043V7z"/>
	<path fill="#FFFFFF" d="M330.601,438.059h0.006V265.027c0,0,0,0-156.334,0c-13.701,0-26.301,1.343-37.929,3.746
		C192.599,337.77,259.868,393.345,330.601,438.059z"/>
	<path fill="#FFFFFF" d="M875.5,609.572c0-138.12,0-173.031,0-173.031s16.884-171.513-171.514-171.513
		c-145.537,0-168.566,0-171.511,0v171.513h151.779c0,0,18.974-2.843,18.974,18.974c0,9.186,0.136,68.373,0.292,133.815
		c95.977,22.72,164.369,28.7,171.702,29.294C875.388,615.651,875.5,612.646,875.5,609.572z"/>
</g>
<g>
</g>
<g>
</g>
<g>
</g>
<g>
</g>
<g>
</g>
</svg>
